<svg width="60" height="60" viewBox="0 0 60 60" fill="none" xmlns="http://www.w3.org/2000/svg">
<rect width="60" height="60" rx="8" fill="#5E1ECB"/>
<path d="M40.7075 24.2925L33.7075 17.2925C33.6146 17.1997 33.5042 17.1261 33.3829 17.0759C33.2615 17.0257 33.1314 16.9999 33 17H21C20.4696 17 19.9609 17.2107 19.5858 17.5858C19.2107 17.9609 19 18.4696 19 19V41C19 41.5304 19.2107 42.0391 19.5858 42.4142C19.9609 42.7893 20.4696 43 21 43H39C39.5304 43 40.0391 42.7893 40.4142 42.4142C40.7893 42.0391 41 41.5304 41 41V25C41.0001 24.8686 40.9743 24.7385 40.9241 24.6172C40.8739 24.4958 40.8003 24.3854 40.7075 24.2925ZM34 36H26C25.7348 36 25.4804 35.8946 25.2929 35.7071C25.1054 35.5196 25 35.2652 25 35C25 34.7348 25.1054 34.4804 25.2929 34.2929C25.4804 34.1054 25.7348 34 26 34H34C34.2652 34 34.5196 34.1054 34.7071 34.2929C34.8946 34.4804 35 34.7348 35 35C35 35.2652 34.8946 35.5196 34.7071 35.7071C34.5196 35.8946 34.2652 36 34 36ZM34 32H26C25.7348 32 25.4804 31.8946 25.2929 31.7071C25.1054 31.5196 25 31.2652 25 31C25 30.7348 25.1054 30.4804 25.2929 30.2929C25.4804 30.1054 25.7348 30 26 30H34C34.2652 30 34.5196 30.1054 34.7071 30.2929C34.8946 30.4804 35 30.7348 35 31C35 31.2652 34.8946 31.5196 34.7071 31.7071C34.5196 31.8946 34.2652 32 34 32ZM33 25V19.5L38.5 25H33Z" fill="white"/>
</svg>
