<svg width="52" height="52" viewBox="0 0 52 52" fill="none" xmlns="http://www.w3.org/2000/svg">
<rect width="52" height="52" rx="8" fill="#F7F2FF"/>
<path d="M35.9165 23.889H32.5448C29.7798 23.889 27.5282 21.6373 27.5282 18.8723V15.5007C27.5282 14.859 27.0032 14.334 26.3615 14.334H21.4148C17.8215 14.334 14.9165 16.6673 14.9165 20.8323V31.169C14.9165 35.334 17.8215 37.6673 21.4148 37.6673H30.5848C34.1782 37.6673 37.0832 35.334 37.0832 31.169V25.0556C37.0832 24.414 36.5582 23.889 35.9165 23.889ZM25.4515 27.7857C25.2765 27.9607 25.0548 28.0423 24.8332 28.0423C24.6115 28.0423 24.3898 27.9607 24.2148 27.7857L23.3748 26.9457V31.834C23.3748 32.3123 22.9782 32.709 22.4998 32.709C22.0215 32.709 21.6248 32.3123 21.6248 31.834V26.9457L20.7848 27.7857C20.4465 28.124 19.8865 28.124 19.5482 27.7857C19.3854 27.621 19.2942 27.3988 19.2942 27.1673C19.2942 26.9358 19.3854 26.7136 19.5482 26.549L21.8815 24.2157C21.9632 24.1457 22.0448 24.0873 22.1382 24.0407C22.1615 24.029 22.1965 24.0173 22.2198 24.0057C22.2898 23.9823 22.3598 23.9707 22.4415 23.959H22.5348C22.6282 23.959 22.7215 23.9823 22.8148 24.0173H22.8382C22.9315 24.0523 23.0248 24.1223 23.0948 24.1923C23.1065 24.204 23.1182 24.204 23.1182 24.2157L25.4515 26.549C25.7898 26.8873 25.7898 27.4473 25.4515 27.7857Z" fill="#7E3AF2"/>
<path d="M32.3348 22.2789C33.4431 22.2906 34.9831 22.2906 36.3015 22.2906C36.9665 22.2906 37.3165 21.5089 36.8498 21.0422C35.1698 19.3506 32.1598 16.3056 30.4331 14.5789C29.9548 14.1006 29.1265 14.4272 29.1265 15.0922V19.1639C29.1265 20.8672 30.5731 22.2789 32.3348 22.2789Z" fill="#7E3AF2"/>
</svg>
