<svg width="24" height="24" viewBox="0 0 24 24" fill="none" xmlns="http://www.w3.org/2000/svg">
<path d="M11.9997 5.33398C8.31967 5.33398 5.33301 8.32065 5.33301 12.0007C5.33301 15.6807 8.31967 18.6673 11.9997 18.6673C15.6797 18.6673 18.6663 15.6807 18.6663 12.0007C18.6663 8.32065 15.6797 5.33398 11.9997 5.33398ZM11.9997 17.334C9.05967 17.334 6.66634 14.9407 6.66634 12.0007C6.66634 9.06065 9.05967 6.66732 11.9997 6.66732C14.9397 6.66732 17.333 9.06065 17.333 12.0007C17.333 14.9407 14.9397 17.334 11.9997 17.334ZM14.5863 9.52732L10.6663 13.4473L9.41301 12.194C9.15301 11.934 8.73301 11.934 8.47301 12.194C8.21301 12.454 8.21301 12.874 8.47301 13.134L10.1997 14.8607C10.4597 15.1207 10.8797 15.1207 11.1397 14.8607L15.533 10.4673C15.793 10.2073 15.793 9.78732 15.533 9.52732C15.273 9.26732 14.8463 9.26732 14.5863 9.52732Z" fill="#7E3AF2"/>
</svg>
