<svg width="16" height="16" viewBox="0 0 16 16" fill="none" xmlns="http://www.w3.org/2000/svg">
<path d="M14.0297 4.11648L9.70969 1.09398C8.53219 0.268979 6.72469 0.313979 5.59219 1.19148L1.83469 4.12398C1.08469 4.70898 0.492188 5.90898 0.492188 6.85398V12.029C0.492188 13.9415 2.04469 15.5015 3.95719 15.5015H12.0422C13.9547 15.5015 15.5072 13.949 15.5072 12.0365V6.95148C15.5072 5.93898 14.8547 4.69398 14.0297 4.11648ZM8.56219 12.5015C8.56219 12.809 8.30719 13.064 7.99969 13.064C7.69219 13.064 7.43719 12.809 7.43719 12.5015V10.2515C7.43719 9.94398 7.69219 9.68898 7.99969 9.68898C8.30719 9.68898 8.56219 9.94398 8.56219 10.2515V12.5015Z" fill="#17141B"/>
</svg>
