<svg width="41" height="40" viewBox="0 0 41 40" fill="none" xmlns="http://www.w3.org/2000/svg">
<rect x="0.5" width="40" height="40" rx="8" fill="#17141B" fill-opacity="0.04"/>
<path d="M25 12.25C25 13.49 23.99 14.5 22.75 14.5H19.25C18.63 14.5 18.07 14.25 17.66 13.84C17.25 13.43 17 12.87 17 12.25C17 11.01 18.01 10 19.25 10H22.75C23.37 10 23.93 10.25 24.34 10.66C24.75 11.07 25 11.63 25 12.25Z" fill="#17141B"/>
<path d="M27.83 13.0287C27.5987 12.839 27.3388 12.6871 27.06 12.5787C26.77 12.4687 26.48 12.6987 26.42 12.9987C26.08 14.7087 24.57 15.9987 22.75 15.9987H19.25C18.25 15.9987 17.31 15.6087 16.6 14.8987C16.0806 14.3834 15.7257 13.7257 15.58 13.0087C15.52 12.7087 15.22 12.4687 14.93 12.5887C13.77 13.0587 13 14.1187 13 16.2487V25.9987C13 28.9987 14.79 29.9987 17 29.9987H25C27.21 29.9987 29 28.9987 29 25.9987V16.2487C29 14.6187 28.55 13.6187 27.83 13.0287ZM17 20.2487H21C21.41 20.2487 21.75 20.5887 21.75 20.9987C21.75 21.4087 21.41 21.7487 21 21.7487H17C16.59 21.7487 16.25 21.4087 16.25 20.9987C16.25 20.5887 16.59 20.2487 17 20.2487ZM25 25.7487H17C16.59 25.7487 16.25 25.4087 16.25 24.9987C16.25 24.5887 16.59 24.2487 17 24.2487H25C25.41 24.2487 25.75 24.5887 25.75 24.9987C25.75 25.4087 25.41 25.7487 25 25.7487Z" fill="#17141B"/>
</svg>
