<svg width="40" height="40" viewBox="0 0 40 40" fill="none" xmlns="http://www.w3.org/2000/svg">
<g filter="url(#filter0_di_990_1732)">
<rect x="4" y="3" width="32" height="32" rx="4" fill="white" shape-rendering="crispEdges"/>
<path d="M27.3333 13.6154H24V12.9615C24 12.4413 23.7893 11.9424 23.4142 11.5745C23.0391 11.2067 22.5304 11 22 11H18C17.4696 11 16.9609 11.2067 16.5858 11.5745C16.2107 11.9424 16 12.4413 16 12.9615V13.6154H12.6667C12.4899 13.6154 12.3203 13.6843 12.1953 13.8069C12.0702 13.9295 12 14.0958 12 14.2692C12 14.4426 12.0702 14.6089 12.1953 14.7316C12.3203 14.8542 12.4899 14.9231 12.6667 14.9231H13.3333V26.6923C13.3333 27.0391 13.4738 27.3717 13.7239 27.617C13.9739 27.8622 14.313 28 14.6667 28H25.3333C25.687 28 26.0261 27.8622 26.2761 27.617C26.5262 27.3717 26.6667 27.0391 26.6667 26.6923V14.9231H27.3333C27.5101 14.9231 27.6797 14.8542 27.8047 14.7316C27.9298 14.6089 28 14.4426 28 14.2692C28 14.0958 27.9298 13.9295 27.8047 13.8069C27.6797 13.6843 27.5101 13.6154 27.3333 13.6154ZM17.3333 12.9615C17.3333 12.7881 17.4036 12.6218 17.5286 12.4992C17.6536 12.3766 17.8232 12.3077 18 12.3077H22C22.1768 12.3077 22.3464 12.3766 22.4714 12.4992C22.5964 12.6218 22.6667 12.7881 22.6667 12.9615V13.6154H17.3333V12.9615ZM25.3333 26.6923H14.6667V14.9231H25.3333V26.6923ZM18.6667 18.1923V23.4231C18.6667 23.5965 18.5964 23.7628 18.4714 23.8854C18.3464 24.008 18.1768 24.0769 18 24.0769C17.8232 24.0769 17.6536 24.008 17.5286 23.8854C17.4036 23.7628 17.3333 23.5965 17.3333 23.4231V18.1923C17.3333 18.0189 17.4036 17.8526 17.5286 17.73C17.6536 17.6073 17.8232 17.5385 18 17.5385C18.1768 17.5385 18.3464 17.6073 18.4714 17.73C18.5964 17.8526 18.6667 18.0189 18.6667 18.1923ZM22.6667 18.1923V23.4231C22.6667 23.5965 22.5964 23.7628 22.4714 23.8854C22.3464 24.008 22.1768 24.0769 22 24.0769C21.8232 24.0769 21.6536 24.008 21.5286 23.8854C21.4036 23.7628 21.3333 23.5965 21.3333 23.4231V18.1923C21.3333 18.0189 21.4036 17.8526 21.5286 17.73C21.6536 17.6073 21.8232 17.5385 22 17.5385C22.1768 17.5385 22.3464 17.6073 22.4714 17.73C22.5964 17.8526 22.6667 18.0189 22.6667 18.1923Z" fill="#F2503A"/>
<rect x="3.5" y="2.5" width="33" height="33" rx="4.5" stroke="#E4E6F1" shape-rendering="crispEdges"/>
</g>
<defs>
<filter id="filter0_di_990_1732" x="0" y="0" width="40" height="40" filterUnits="userSpaceOnUse" color-interpolation-filters="sRGB">
<feFlood flood-opacity="0" result="BackgroundImageFix"/>
<feColorMatrix in="SourceAlpha" type="matrix" values="0 0 0 0 0 0 0 0 0 0 0 0 0 0 0 0 0 0 127 0" result="hardAlpha"/>
<feOffset dy="1"/>
<feGaussianBlur stdDeviation="1.5"/>
<feComposite in2="hardAlpha" operator="out"/>
<feColorMatrix type="matrix" values="0 0 0 0 0.0431373 0 0 0 0 0.0745098 0 0 0 0 0.141176 0 0 0 0.1 0"/>
<feBlend mode="normal" in2="BackgroundImageFix" result="effect1_dropShadow_990_1732"/>
<feBlend mode="normal" in="SourceGraphic" in2="effect1_dropShadow_990_1732" result="shape"/>
<feColorMatrix in="SourceAlpha" type="matrix" values="0 0 0 0 0 0 0 0 0 0 0 0 0 0 0 0 0 0 127 0" result="hardAlpha"/>
<feOffset dy="-1"/>
<feComposite in2="hardAlpha" operator="arithmetic" k2="-1" k3="1"/>
<feColorMatrix type="matrix" values="0 0 0 0 0 0 0 0 0 0 0 0 0 0 0 0 0 0 0.1 0"/>
<feBlend mode="normal" in2="shape" result="effect2_innerShadow_990_1732"/>
</filter>
</defs>
</svg>
