<svg width="48" height="48" viewBox="0 0 48 48" fill="none" xmlns="http://www.w3.org/2000/svg">
<rect width="48" height="48" rx="24" fill="#F7F9FD"/>
<path d="M24.0003 15.666C19.3978 15.666 15.667 19.3968 15.667 23.9993C15.667 28.1585 18.7145 31.606 22.6987 32.2318V26.4077H20.582V23.9993H22.6987V22.1635C22.6987 20.0752 23.942 18.9218 25.8462 18.9218C26.7578 18.9218 27.7112 19.0843 27.7112 19.0843V21.1343H26.6612C25.6253 21.1343 25.3028 21.7768 25.3028 22.436V23.9993H27.6137L27.2445 26.4077H25.3028V32.2318C29.2862 31.6068 32.3337 28.1577 32.3337 23.9993C32.3337 19.3968 28.6028 15.666 24.0003 15.666Z" fill="#17141B"/>
</svg>
