<svg width="20" height="20" viewBox="0 0 20 20" fill="none" xmlns="http://www.w3.org/2000/svg">
<path d="M1.43475 17.5639L1.07695 17.913C0.950328 17.7832 0.773882 17.5653 0.780794 17.2658C0.787771 16.9635 0.976915 16.755 1.11167 16.6326L1.44783 17.0029L1.11167 16.6326C1.56166 16.2241 2.01186 15.8157 2.46457 15.4051C2.6432 15.243 2.82222 15.0807 3.00177 14.9178L7.65126 10.6997M1.43475 17.5639L7.65126 10.6997M1.43475 17.5639L1.07695 17.913L1.11135 17.9483C1.50394 18.3507 1.89681 18.7533 2.29029 19.1555C2.42581 19.2941 2.63172 19.4501 2.91184 19.4573C3.19054 19.4644 3.40422 19.3205 3.54715 19.1908L3.21113 18.8204M1.43475 17.5639L3.21113 18.8204M7.65126 10.6997C7.69055 10.664 7.74927 10.6115 7.81445 10.569C7.88278 10.5245 8.00804 10.4575 8.17516 10.462C8.34292 10.4666 8.46473 10.5408 8.53115 10.5898C8.59411 10.6363 8.64971 10.6926 8.68655 10.7303L8.78132 10.8275C9.23527 11.2927 9.6893 11.7581 10.1431 12.2236C10.1789 12.2602 10.2316 12.3164 10.2755 12.3842C10.3221 12.4564 10.3824 12.578 10.3775 12.7369C10.3726 12.8958 10.3049 13.0133 10.2541 13.0823C10.2062 13.1473 10.1502 13.2001 10.1122 13.2346C7.92393 15.2201 5.73563 17.2055 3.54715 19.1908L3.21113 18.8204M7.65126 10.6997L3.21113 18.8204" fill="white" stroke="white"/>
<path d="M11.2925 10.8041L11.3241 10.8359L11.361 10.8615C11.5362 10.9835 11.7618 11.0407 11.9938 10.9545C12.1528 10.8955 12.2656 10.7796 12.3018 10.7424C12.3042 10.7399 12.3063 10.7378 12.308 10.736C12.6093 10.4319 12.912 10.1269 13.215 9.82174C13.5756 9.45844 13.9365 9.09485 14.2956 8.73205C14.4718 8.5541 14.6265 8.31162 14.6277 8.00858C14.6289 7.70464 14.4752 7.4609 14.2985 7.28195C13.7038 6.67991 13.1078 6.07925 12.5106 5.47991C12.3351 5.30382 12.09 5.13712 11.7758 5.14018C11.4644 5.14321 11.2221 5.31202 11.0483 5.48682L11.0483 5.48682C10.3937 6.14518 9.73991 6.80437 9.08645 7.46331C9.03933 7.51082 8.97654 7.57595 8.92596 7.64937C8.87241 7.7271 8.80182 7.85745 8.80375 8.03002C8.80565 8.20074 8.87774 8.32855 8.93023 8.40347C8.98065 8.47544 9.04303 8.54013 9.09098 8.58848C9.82066 9.32417 10.5509 10.0599 11.2925 10.8041Z" stroke="white"/>
<path d="M9.94363 3.06485C10.3874 3.30802 10.839 3.42916 11.377 3.53271C9.40804 3.92462 8.26584 5.07485 7.8871 7.05432C7.4926 5.04903 6.34208 3.89027 4.37695 3.53728C6.33317 3.18893 7.48324 2.03884 7.88878 0C8.01826 0.690726 8.20629 1.27026 8.55004 1.78495C8.90578 2.31759 9.3658 2.73448 9.94363 3.06485Z" fill="white"/>
<path d="M15.3472 9.68269C15.431 9.38001 15.5016 9.10795 15.5758 8.82178C16.0113 10.8926 17.1924 11.9437 19.0371 12.3361C17.1089 12.7186 15.9618 13.8794 15.5825 15.8761C15.1831 13.8611 14.034 12.6847 12.0371 12.3278C13.6377 12.0631 14.747 11.2242 15.3472 9.68269Z" fill="white"/>
<path d="M15.8184 7.05432C15.455 5.26162 14.1983 3.98632 12.384 3.60883C12.3062 3.54375 12.3413 3.50721 12.4111 3.46118C14.2508 3.01744 15.3731 1.90039 15.7826 0.0439448C15.846 -0.0352373 15.8862 0.00389829 15.943 0.0722019C16.3473 1.89701 17.4707 2.98028 19.2704 3.44329C19.3396 3.47907 19.3535 3.51692 19.3279 3.58675C17.5287 4.02963 16.4106 5.11884 15.9551 6.92143C15.9253 7.00398 15.8992 7.05044 15.8184 7.05432Z" fill="white"/>
</svg>
