<svg width="24" height="24" viewBox="0 0 24 24" fill="none" xmlns="http://www.w3.org/2000/svg">
<path d="M16.8885 0.333984H7.11183C2.86516 0.333984 0.333496 2.86565 0.333496 7.11232V16.8773C0.333496 21.1357 2.86516 23.6673 7.11183 23.6673H16.8768C21.1235 23.6673 23.6552 21.1357 23.6552 16.889V7.11232C23.6668 2.86565 21.1352 0.333984 16.8885 0.333984ZM18.6152 8.75732C18.51 8.96476 18.3276 9.12259 18.1072 9.19678C17.8868 9.27098 17.646 9.25561 17.4368 9.15399C16.0018 8.43065 14.4502 8.03399 12.8752 7.91732V17.0057C12.8752 17.484 12.4785 17.8807 12.0002 17.8807C11.5218 17.8807 11.1252 17.484 11.1252 17.0057V7.91732C9.55016 8.03399 7.9985 8.43065 6.5635 9.15399C6.43516 9.21232 6.29516 9.23565 6.16683 9.23565C5.9696 9.23643 5.7779 9.17056 5.62281 9.04872C5.46772 8.92687 5.35835 8.75621 5.31242 8.56441C5.2665 8.3726 5.28672 8.17091 5.36981 7.99204C5.45289 7.81317 5.59397 7.66761 5.77016 7.57898C9.66683 5.63065 14.3218 5.63065 18.2185 7.57898C18.6618 7.80065 18.8368 8.32565 18.6152 8.75732Z" fill="#17141B"/>
</svg>
