<svg width="18" height="18" viewBox="0 0 18 18" fill="none" xmlns="http://www.w3.org/2000/svg">
<path d="M9.00033 0.666016C11.2645 0.666016 11.547 0.674349 12.4353 0.716016C13.3228 0.757682 13.927 0.896849 14.4587 1.10352C15.0087 1.31518 15.472 1.60185 15.9353 2.06435C16.3591 2.48093 16.687 2.98484 16.8962 3.54102C17.102 4.07185 17.242 4.67685 17.2837 5.56435C17.3228 6.45268 17.3337 6.73518 17.3337 8.99935C17.3337 11.2635 17.3253 11.546 17.2837 12.4343C17.242 13.3218 17.102 13.926 16.8962 14.4577C16.6876 15.0142 16.3596 15.5182 15.9353 15.9344C15.5186 16.3579 15.0148 16.6858 14.4587 16.8952C13.9278 17.101 13.3228 17.241 12.4353 17.2827C11.547 17.3218 11.2645 17.3327 9.00033 17.3327C6.73616 17.3327 6.45366 17.3244 5.56533 17.2827C4.67783 17.241 4.07366 17.101 3.54199 16.8952C2.9856 16.6864 2.4816 16.3585 2.06533 15.9344C1.6415 15.5178 1.3136 15.0139 1.10449 14.4577C0.897826 13.9268 0.758659 13.3218 0.716992 12.4343C0.677825 11.546 0.666992 11.2635 0.666992 8.99935C0.666992 6.73518 0.675325 6.45268 0.716992 5.56435C0.758659 4.67602 0.897826 4.07268 1.10449 3.54102C1.31302 2.9845 1.641 2.48045 2.06533 2.06435C2.48172 1.64037 2.98568 1.31246 3.54199 1.10352C4.07366 0.896849 4.67699 0.757682 5.56533 0.716016C6.45366 0.676849 6.73616 0.666016 9.00033 0.666016ZM9.00033 4.83268C7.89526 4.83268 6.83545 5.27167 6.05405 6.05307C5.27265 6.83447 4.83366 7.89428 4.83366 8.99935C4.83366 10.1044 5.27265 11.1642 6.05405 11.9456C6.83545 12.727 7.89526 13.166 9.00033 13.166C10.1054 13.166 11.1652 12.727 11.9466 11.9456C12.728 11.1642 13.167 10.1044 13.167 8.99935C13.167 7.89428 12.728 6.83447 11.9466 6.05307C11.1652 5.27167 10.1054 4.83268 9.00033 4.83268ZM14.417 4.62435C14.417 4.34808 14.3072 4.08313 14.1119 3.88778C13.9165 3.69243 13.6516 3.58268 13.3753 3.58268C13.0991 3.58268 12.8341 3.69243 12.6388 3.88778C12.4434 4.08313 12.3337 4.34808 12.3337 4.62435C12.3337 4.90062 12.4434 5.16557 12.6388 5.36092C12.8341 5.55627 13.0991 5.66602 13.3753 5.66602C13.6516 5.66602 13.9165 5.55627 14.1119 5.36092C14.3072 5.16557 14.417 4.90062 14.417 4.62435ZM9.00033 6.49935C9.66337 6.49935 10.2993 6.76274 10.7681 7.23158C11.2369 7.70042 11.5003 8.33631 11.5003 8.99935C11.5003 9.66239 11.2369 10.2983 10.7681 10.7671C10.2993 11.236 9.66337 11.4993 9.00033 11.4993C8.33728 11.4993 7.7014 11.236 7.23256 10.7671C6.76372 10.2983 6.50033 9.66239 6.50033 8.99935C6.50033 8.33631 6.76372 7.70042 7.23256 7.23158C7.7014 6.76274 8.33728 6.49935 9.00033 6.49935Z" fill="#17141B"/>
</svg>
