<svg width="24" height="24" viewBox="0 0 24 24" fill="none" xmlns="http://www.w3.org/2000/svg">
<path d="M0.131836 1.83119C0.131836 0.893357 0.916353 0.132812 1.88396 0.132812H22.0891C23.0567 0.132812 23.8412 0.893357 23.8412 1.83119V22.1438C23.8412 23.0819 23.0567 23.8422 22.0891 23.8422H1.88396C0.916353 23.8422 0.131836 23.0819 0.131836 22.1438V1.83119Z" fill="#0066C8"/>
<path d="M5.52849 7.81273C6.77719 7.81273 7.55459 6.99055 7.55459 5.96314C7.53141 4.91255 6.77745 4.11328 5.5522 4.11328C4.32722 4.11328 3.52637 4.91255 3.52637 5.96314C3.52637 6.99055 4.30351 7.81273 5.50531 7.81273H5.52849Z" fill="white"/>
<path d="M7.31896 19.9795V9.27344H3.73779V19.9795H7.31896Z" fill="white"/>
<path d="M9.30029 19.9806H12.8815V14.0019C12.8815 13.6818 12.9046 13.3623 12.9992 13.1336C13.2582 12.4942 13.8472 11.8322 14.8367 11.8322C16.1325 11.8322 16.651 12.814 16.651 14.2532V19.9806H20.2316V13.842C20.2316 10.5535 18.465 9.02344 16.1088 9.02344C14.177 9.02344 13.3288 10.0964 12.8575 10.8272H12.8815V9.27449H9.30029C9.34718 10.2792 9.30029 19.9806 9.30029 19.9806Z" fill="white"/>
</svg>
