<svg width="62" height="62" viewBox="0 0 62 62" fill="none" xmlns="http://www.w3.org/2000/svg">
<rect width="62" height="62" rx="8" fill="#D6E9FF"/>
<path d="M22.5903 28.135H26.3381V40.1897H22.5903V28.135ZM24.4643 22.1428C25.6621 22.1428 26.6356 23.1163 26.6356 24.3161C26.6356 25.5148 25.6621 26.4882 24.4643 26.4882C23.2636 26.4882 22.293 25.5148 22.293 24.3161C22.293 23.1163 23.2636 22.1428 24.4643 22.1428Z" fill="#246BBD"/>
<path d="M28.6875 28.1349H32.2812V29.7833H32.3324C32.8326 28.8352 34.0552 27.8364 35.8773 27.8364C39.6713 27.8364 40.3716 30.3323 40.3716 33.5781V40.1896H36.6266V34.3274C36.6266 32.9291 36.6023 31.131 34.6797 31.131C32.73 31.131 32.4325 32.6551 32.4325 34.227V40.1896H28.6875V28.1349Z" fill="#246BBD"/>
</svg>
