<svg width="14" height="16" viewBox="0 0 14 16" fill="none" xmlns="http://www.w3.org/2000/svg">
<path d="M12.3472 6.47244H13.1111C13.3137 6.47244 13.508 6.55292 13.6513 6.69618C13.7945 6.83943 13.875 7.03373 13.875 7.23633V14.8752C13.875 15.0778 13.7945 15.2721 13.6513 15.4154C13.508 15.5586 13.3137 15.6391 13.1111 15.6391H0.888889C0.686293 15.6391 0.491995 15.5586 0.348738 15.4154C0.205481 15.2721 0.125 15.0778 0.125 14.8752V7.23633C0.125 7.03373 0.205481 6.83943 0.348738 6.69618C0.491995 6.55292 0.686293 6.47244 0.888889 6.47244H1.65278V5.70855C1.65278 5.00634 1.79109 4.31101 2.05981 3.66226C2.32853 3.0135 2.72241 2.42403 3.21894 1.92749C3.71548 1.43096 4.30495 1.03708 4.95371 0.768361C5.60246 0.499638 6.29779 0.361328 7 0.361328C7.70221 0.361328 8.39754 0.499638 9.04629 0.768361C9.69505 1.03708 10.2845 1.43096 10.7811 1.92749C11.2776 2.42403 11.6715 3.0135 11.9402 3.66226C12.2089 4.31101 12.3472 5.00634 12.3472 5.70855V6.47244ZM1.65278 8.00022V14.1113H12.3472V8.00022H1.65278ZM6.23611 9.528H7.76389V12.5836H6.23611V9.528ZM10.8194 6.47244V5.70855C10.8194 4.69557 10.417 3.72408 9.70076 3.0078C8.98447 2.29151 8.01298 1.88911 7 1.88911C5.98702 1.88911 5.01553 2.29151 4.29924 3.0078C3.58296 3.72408 3.18056 4.69557 3.18056 5.70855V6.47244H10.8194Z" fill="#ACB4C3"/>
</svg>
