<svg width="62" height="62" viewBox="0 0 62 62" fill="none" xmlns="http://www.w3.org/2000/svg">
<rect width="62" height="62" rx="8" fill="white"/>
<path d="M38.1861 31.6527H23.2536C22.7434 31.6527 22.3203 31.2296 22.3203 30.7194C22.3203 30.2092 22.7434 29.7861 23.2536 29.7861H38.1861C38.6963 29.7861 39.1194 30.2092 39.1194 30.7194C39.1194 31.2296 38.6963 31.6527 38.1861 31.6527Z" fill="#7E3AF2"/>
<path d="M30.7194 39.1189C30.2092 39.1189 29.7861 38.6958 29.7861 38.1856V23.2531C29.7861 22.7429 30.2092 22.3198 30.7194 22.3198C31.2296 22.3198 31.6527 22.7429 31.6527 23.2531V38.1856C31.6527 38.6958 31.2296 39.1189 30.7194 39.1189Z" fill="#7E3AF2"/>
</svg>
