<svg width="18" height="18" viewBox="0 0 18 18" fill="none" xmlns="http://www.w3.org/2000/svg">
<path d="M9.12004 8.15255C9.04504 8.14505 8.95504 8.14505 8.87254 8.15255C8.01169 8.12333 7.19602 7.76018 6.59826 7.14002C6.0005 6.51986 5.66759 5.69139 5.67004 4.83005C5.67004 2.99255 7.15504 1.50005 9.00004 1.50005C9.43685 1.49217 9.87093 1.57041 10.2775 1.73029C10.6841 1.89017 11.0552 2.12856 11.3696 2.43186C11.6841 2.73516 11.9357 3.09743 12.1101 3.49797C12.2846 3.89851 12.3784 4.32949 12.3863 4.7663C12.3942 5.20311 12.3159 5.6372 12.1561 6.04377C11.9962 6.45035 11.7578 6.82145 11.4545 7.13589C11.1512 7.45033 10.7889 7.70196 10.3884 7.8764C9.98783 8.05084 9.55685 8.14467 9.12004 8.15255ZM5.37004 10.9201C3.55504 12.1351 3.55504 14.1151 5.37004 15.3226C7.43254 16.7026 10.815 16.7026 12.8775 15.3226C14.6925 14.1076 14.6925 12.1276 12.8775 10.9201C10.8225 9.54755 7.44004 9.54755 5.37004 10.9201Z" stroke="#3F3F46" stroke-width="1.5" stroke-linecap="round" stroke-linejoin="round"/>
</svg>
