<svg width="16" height="15" viewBox="0 0 16 15" fill="none" xmlns="http://www.w3.org/2000/svg">
<path d="M1.67693 11.532L2.01309 11.9023L1.67693 11.532C1.57504 11.6245 1.40257 11.8071 1.39621 12.0828C1.38991 12.3557 1.5509 12.5465 1.64614 12.6441L2.00394 12.295L1.64614 12.6441L1.67003 12.6686C1.94489 12.9503 2.22004 13.2324 2.49562 13.514C2.60216 13.6229 2.78128 13.7639 3.03413 13.7703C3.28555 13.7768 3.47145 13.6466 3.58343 13.545C5.11537 12.1553 6.64718 10.7655 8.17894 9.37561C8.20694 9.35021 8.25545 9.30502 8.29825 9.2469C8.34402 9.18477 8.40906 9.07344 8.41378 8.92086C8.41851 8.76818 8.3604 8.65291 8.31842 8.58792C8.27921 8.5272 8.2335 8.4791 8.20719 8.45211C7.89041 8.12719 7.57351 7.80238 7.25668 7.47766L7.18753 7.40679C7.16202 7.38064 7.11547 7.33311 7.06046 7.2925C7.00199 7.24934 6.88703 7.17812 6.72622 7.17375C6.56605 7.1694 6.44784 7.23382 6.38783 7.2729C6.33099 7.30991 6.28188 7.35428 6.25468 7.37896L3.00004 10.3316L3.33608 10.702L3.00004 10.3316C2.87442 10.4456 2.74917 10.5592 2.62419 10.6726C2.30723 10.9601 1.992 11.246 1.67693 11.532Z" fill="#383540" stroke="#383540"/>
<path d="M9.83024 7.70067L9.79858 7.66889C9.27933 7.14783 8.76807 6.63271 8.25728 6.11771C8.22348 6.08362 8.17172 6.03047 8.12841 5.96865C8.08303 5.90387 8.01454 5.78482 8.01273 5.62283C8.0109 5.459 8.07809 5.33733 8.12474 5.26961C8.16843 5.20619 8.22084 5.15238 8.2541 5.11884M9.83024 7.70067L8.2541 5.11884M9.83024 7.70067L9.86706 7.7263C10.0215 7.83385 10.2306 7.88964 10.448 7.80894C10.5934 7.75493 10.6943 7.64999 10.7185 7.62484C10.7201 7.62318 10.7213 7.62187 10.7223 7.62094M9.83024 7.70067L10.7223 7.62094M8.2541 5.11884C8.71152 4.65759 9.16921 4.19609 9.62755 3.73516L9.62755 3.73515C9.76214 3.59981 9.96729 3.45095 10.2417 3.44828C10.5189 3.44558 10.7271 3.59305 10.8637 3.7302C11.282 4.14989 11.6993 4.57051 12.1158 4.9921C12.2554 5.13343 12.3905 5.34 12.3895 5.60675C12.3884 5.87259 12.2525 6.07785 12.1137 6.2181C11.8624 6.47193 11.6095 6.72671 11.3569 6.98119C11.1447 7.1949 10.9328 7.4084 10.7223 7.62094M8.2541 5.11884L10.7223 7.62094M10.7223 7.62094L10.3772 7.27906L10.7223 7.62094C10.7223 7.62094 10.7223 7.62094 10.7223 7.62094Z" stroke="#383540"/>
<path d="M8.96015 2.14539C9.27081 2.31561 9.58692 2.40041 9.96348 2.4729C8.58524 2.74723 7.7857 3.55239 7.52058 4.93803C7.24443 3.53432 6.43906 2.72319 5.06348 2.4761C6.43283 2.23225 7.23788 1.42719 7.52175 0C7.61239 0.483508 7.74401 0.889185 7.98464 1.24947C8.23366 1.62231 8.55567 1.91413 8.96015 2.14539Z" fill="#383540"/>
<path d="M12.7428 6.77793C12.8015 6.56606 12.8509 6.37561 12.9029 6.17529C13.2077 7.62488 14.0345 8.36064 15.3258 8.63534C13.976 8.90305 13.173 9.71566 12.9076 11.1133C12.6279 9.70284 11.8236 8.87937 10.4258 8.62951C11.5462 8.4442 12.3227 7.85701 12.7428 6.77793Z" fill="#383540"/>
<path d="M13.0737 4.93803C12.8193 3.68313 11.9396 2.79042 10.6696 2.52618C10.6151 2.48063 10.6397 2.45505 10.6886 2.42283C11.9764 2.11221 12.762 1.33027 13.0486 0.0307613C13.093 -0.0246661 13.1211 0.0027288 13.1609 0.0505413C13.4439 1.3279 14.2303 2.0862 15.4901 2.41031C15.5385 2.43535 15.5482 2.46184 15.5303 2.51073C14.2709 2.82074 13.4882 3.58319 13.1694 4.845C13.1485 4.90278 13.1302 4.93531 13.0737 4.93803Z" fill="#383540"/>
</svg>
