<svg width="19" height="18" viewBox="0 0 19 18" fill="none" xmlns="http://www.w3.org/2000/svg">
<path d="M2.01361 14.7527L1.67744 14.3824C2.01473 14.0762 2.35218 13.7701 2.69149 13.4623C2.82568 13.3406 2.96017 13.2186 3.09505 13.0962L3.43109 13.4666L3.09505 13.0962L6.58217 9.93266M2.01361 14.7527L6.58217 9.93266M2.01361 14.7527L1.67744 14.3824C1.57008 14.4799 1.39483 14.6667 1.38836 14.9469C1.38196 15.2242 1.54553 15.4195 1.646 15.5225L1.67096 15.5481C1.96567 15.8502 2.26067 16.1525 2.55612 16.4545C2.66749 16.5684 2.85108 16.7118 3.10847 16.7184C3.36444 16.725 3.55497 16.5925 3.67211 16.4862C5.31347 14.9972 6.9547 13.5082 8.59587 12.019C8.62554 11.9921 8.6753 11.9456 8.71895 11.8864C8.76556 11.8231 8.83104 11.7107 8.8358 11.5571C8.84055 11.4034 8.78207 11.2871 8.73932 11.2209C8.69933 11.159 8.65245 11.1095 8.62457 11.0809C8.28419 10.7318 7.94367 10.3828 7.60322 10.0339L7.53209 9.96095L7.17691 10.3075L7.53209 9.96095C7.5047 9.93287 7.45663 9.88388 7.4003 9.8423C7.3405 9.79816 7.2244 9.72644 7.06244 9.72204C6.90111 9.71766 6.78172 9.78252 6.72033 9.82249C6.66209 9.86042 6.61139 9.90615 6.58217 9.93266M2.01361 14.7527L6.91821 10.3031L6.58217 9.93266" fill="#7E3AF2" stroke="#7E3AF2"/>
<path d="M10.4122 10.223L10.3806 10.1912C9.82426 9.63293 9.27651 9.08104 8.72924 8.52926L9.03912 8.22191L8.72924 8.52926C8.69308 8.4928 8.63955 8.43772 8.59505 8.37421C8.54849 8.30774 8.4794 8.18723 8.47758 8.02379C8.47573 7.85849 8.54348 7.73538 8.59129 7.66599C8.63612 7.60091 8.69027 7.54521 8.72583 7.50934C9.21593 7.01515 9.70629 6.52069 10.1974 6.02686L10.1974 6.02685C10.3385 5.88493 10.5498 5.73275 10.8304 5.73002C11.1138 5.72726 11.3281 5.87793 11.4712 6.02158M10.4122 10.223L11.4712 6.02158M10.4122 10.223L10.449 10.2486C10.607 10.3585 10.8188 10.4146 11.0386 10.333C11.1862 10.2781 11.2891 10.1715 11.3153 10.1442C11.3171 10.1424 11.3185 10.141 11.3196 10.1399M10.4122 10.223L12.8103 8.63685M11.4712 6.02158C11.9193 6.47121 12.3664 6.92183 12.8126 7.3735C12.9583 7.5211 13.0966 7.73386 13.0955 8.00681C13.0945 8.27885 12.9554 8.49032 12.8103 8.63685M11.4712 6.02158L12.8103 8.63685M12.8103 8.63685L12.455 8.28512L12.8103 8.63685C12.8103 8.63685 12.8103 8.63685 12.8103 8.63685ZM12.8103 8.63685C12.5411 8.90886 12.2702 9.1818 11.9995 9.45444C11.7723 9.68338 11.5452 9.9121 11.3196 10.1399M11.3196 10.1399L10.9644 9.788L11.3196 10.1399Z" stroke="#7E3AF2"/>
<path d="M8.38595 4.29864C8.7188 4.48101 9.05749 4.57187 9.46094 4.64953C7.98425 4.94346 7.12761 5.80613 6.84355 7.29074C6.54767 5.78677 5.68478 4.9177 4.21094 4.65296C5.6781 4.39169 6.54065 3.52913 6.84481 2C6.94192 2.51804 7.08294 2.9527 7.34075 3.33871C7.60756 3.73819 7.95257 4.05086 8.38595 4.29864Z" fill="#7E3AF2"/>
<path d="M13.5099 10.3337C13.5727 10.1067 13.6257 9.90262 13.6814 9.68799C14.008 11.2411 14.8938 12.0294 16.2773 12.3237C14.8312 12.6106 13.9708 13.4812 13.6864 14.9787C13.3868 13.4675 12.525 12.5852 11.0273 12.3175C12.2278 12.119 13.0598 11.4898 13.5099 10.3337Z" fill="#7E3AF2"/>
<path d="M13.8648 6.21945C13.5922 4.87492 12.6497 3.91845 11.2889 3.63533C11.2306 3.58652 11.257 3.55912 11.3093 3.5246C12.6891 3.19179 13.5308 2.354 13.8379 0.96167C13.8855 0.902283 13.9156 0.931635 13.9582 0.982862C14.2615 2.35147 15.104 3.16392 16.4538 3.51118C16.5056 3.53802 16.5161 3.5664 16.4969 3.61877C15.1475 3.95093 14.309 4.76784 13.9673 6.11978C13.945 6.18169 13.9253 6.21654 13.8648 6.21945Z" fill="#7E3AF2"/>
</svg>
