<svg width="48" height="48" viewBox="0 0 48 48" fill="none" xmlns="http://www.w3.org/2000/svg">
<rect width="48" height="48" rx="24" fill="#F7F9FD"/>
<path d="M32.4683 18.7138C31.8321 18.9952 31.1574 19.18 30.4666 19.2621C31.1947 18.8266 31.7397 18.1413 31.9999 17.3338C31.3166 17.7404 30.5674 18.0254 29.7866 18.1796C29.2621 17.6184 28.5669 17.2462 27.809 17.1209C27.0512 16.9956 26.2732 17.1242 25.596 17.4866C24.9187 17.8491 24.3802 18.4252 24.0642 19.1253C23.7481 19.8253 23.6722 20.6102 23.8483 21.3579C22.4625 21.2885 21.1069 20.9284 19.8693 20.301C18.6318 19.6736 17.54 18.793 16.6649 17.7163C16.3552 18.2483 16.1924 18.8531 16.1933 19.4688C16.1933 20.6771 16.8083 21.7446 17.7433 22.3696C17.1899 22.3522 16.6488 22.2027 16.1649 21.9338V21.9771C16.1651 22.7818 16.4436 23.5618 16.9531 24.1846C17.4627 24.8075 18.172 25.235 18.9608 25.3946C18.4471 25.5338 17.9085 25.5543 17.3858 25.4546C17.6081 26.1473 18.0416 26.7531 18.6254 27.1872C19.2092 27.6213 19.9142 27.8619 20.6416 27.8754C19.9187 28.4432 19.0909 28.8629 18.2057 29.1106C17.3204 29.3582 16.395 29.429 15.4824 29.3188C17.0755 30.3433 18.93 30.8872 20.8241 30.8854C27.2349 30.8854 30.7408 25.5746 30.7408 20.9688C30.7408 20.8188 30.7366 20.6671 30.7299 20.5188C31.4123 20.0256 32.0013 19.4146 32.4691 18.7146L32.4683 18.7138Z" fill="#17141B"/>
</svg>
