<svg width="60" height="60" viewBox="0 0 60 60" fill="none" xmlns="http://www.w3.org/2000/svg">
<rect width="60" height="60" rx="8" fill="#EDE8FF"/>
<path d="M40.7075 24.2925L33.7075 17.2925C33.6146 17.1997 33.5042 17.1261 33.3829 17.0759C33.2615 17.0257 33.1314 16.9999 33 17H21C20.4696 17 19.9609 17.2107 19.5858 17.5858C19.2107 17.9609 19 18.4696 19 19V41C19 41.5304 19.2107 42.0391 19.5858 42.4142C19.9609 42.7893 20.4696 43 21 43H39C39.5304 43 40.0391 42.7893 40.4142 42.4142C40.7893 42.0391 41 41.5304 41 41V25C41.0001 24.8686 40.9743 24.7385 40.9241 24.6172C40.8739 24.4958 40.8003 24.3854 40.7075 24.2925ZM33 25V19.5L38.5 25H33Z" fill="#7E3AF2"/>
</svg>
